<svg xmlns="http://www.w3.org/2000/svg" viewBox="0 0 64 64" role="img" aria-label="Hopewell Health Solutions">
  <rect width="64" height="64" rx="13" fill="#265489"/>
  <!-- Hopewell mark (wings) + HHS monogram, scaled from the brand logo into the square -->
  <g transform="translate(32,33) scale(0.082) translate(-320,-191)">
    <g fill="#ffffff" stroke="#ffffff" stroke-width="7" stroke-linejoin="round" stroke-linecap="round">
      <path d="M 7,125 C 4,138 2,158 2,180 C 1,213 4,232 14,251 C 30,279 58,299 90,317 C 110,330 129,346 146,362 C 150,349 152,324 149,299 C 146,275 138,256 121,243 C 100,232 78,222 57,214 C 64,232 77,250 88,268 C 70,252 44,236 33,222 C 28,206 22,188 18,170 C 16,150 12,132 7,125 Z"></path>
      <g transform="translate(640,0) scale(-1,1)"><path d="M 7,125 C 4,138 2,158 2,180 C 1,213 4,232 14,251 C 30,279 58,299 90,317 C 110,330 129,346 146,362 C 150,349 152,324 149,299 C 146,275 138,256 121,243 C 100,232 78,222 57,214 C 64,232 77,250 88,268 C 70,252 44,236 33,222 C 28,206 22,188 18,170 C 16,150 12,132 7,125 Z"></path></g>
    </g>
    <text x="320" y="128" fill="#ffffff" font-family="Georgia, 'Times New Roman', Tinos, serif" font-weight="700" font-size="150" letter-spacing="6" text-anchor="middle">HHS</text>
  </g>
</svg>
